<svg xmlns="http://www.w3.org/2000/svg" viewBox="0 0 120 120" fill="none">
  <!-- Stethoscope with dollar sign — represents affordable care -->
  <!-- Circular background -->
  <circle cx="60" cy="60" r="56" fill="#E8F5F5" stroke="#006B73" stroke-width="1.5" opacity="0.5"/>
  
  <!-- Dollar sign -->
  <path d="M60 30v4" stroke="#006B73" stroke-width="3" stroke-linecap="round"/>
  <path d="M60 82v4" stroke="#006B73" stroke-width="3" stroke-linecap="round"/>
  <path d="M48 42c0-5.5 5.4-8 12-8s12 2.5 12 8c0 6-6 8-12 10s-12 4-12 10c0 5.5 5.4 8 12 8s12-2.5 12-8" stroke="#006B73" stroke-width="3" stroke-linecap="round" stroke-linejoin="round"/>
  
  <!-- Small heart accent -->
  <path d="M82 35c1.5-2 4-2.5 5.5-1s1.5 4-1 6l-4.5 5-4.5-5c-2.5-2-2-4.5-1-6s4-1 5.5 1z" fill="#FF5A36" opacity="0.7"/>
</svg>