<svg xmlns="http://www.w3.org/2000/svg" viewBox="0 0 120 120" fill="none">
  <!-- Dollar sign icon — represents affordable self-pay care -->
  <!-- Circular background -->
  <circle cx="60" cy="60" r="56" fill="#E8F5F5" stroke="#006B73" stroke-width="1.5" opacity="0.5"/>
  
  <!-- Vertical line of dollar sign -->
  <path d="M60 28v4" stroke="#006B73" stroke-width="3" stroke-linecap="round"/>
  <path d="M60 84v4" stroke="#006B73" stroke-width="3" stroke-linecap="round"/>
  
  <!-- S-curve of dollar sign (correct orientation) -->
  <path d="M72 42c0-6-5.4-10-12-10s-12 4-12 10c0 6 5 8.5 12 11s12 5 12 11c0 6-5.4 10-12 10s-12-4-12-10" stroke="#006B73" stroke-width="3" stroke-linecap="round" stroke-linejoin="round" fill="none"/>
  
  <!-- Small heart accent -->
  <path d="M82 35c1.5-2 4-2.5 5.5-1s1.5 4-1 6l-4.5 5-4.5-5c-2.5-2-2-4.5-1-6s4-1 5.5 1z" fill="#FF5A36" opacity="0.7"/>
</svg>