<svg xmlns="http://www.w3.org/2000/svg" width="1044" height="163" viewBox="0 0 1044 163"><g fill="none" transform="translate(0 3)"><path fill="#1355E9" d="M721.8825,146.938008 C721.8825,151.717658 718.4025,155.356709 713.6175,155.356709 C708.8325,155.356709 705.298125,151.57282 705.298125,146.938008 C705.298125,142.303197 708.94125,138.41068 713.6175,138.41068 C718.29375,138.41068 721.8825,142.266988 721.8825,146.938008 Z M706.893125,146.938008 C706.893125,150.721898 709.793125,153.890226 713.6175,153.890226 C717.441875,153.890226 720.341875,150.88484 720.341875,146.938008 C720.341875,142.991177 717.405625,139.913372 713.6175,139.913372 C709.829375,139.913372 706.893125,143.0817 706.893125,146.938008 Z M710.409375,142.339406 L713.816875,142.339406 C715.14,142.339406 717.188125,142.719606 717.188125,144.964593 C717.188125,146.666437 715.919375,147.281998 714.759375,147.426836 L717.731875,151.373668 L715.7925,151.373668 L712.965,147.51736 L712.076875,147.51736 L712.076875,151.373668 L710.409375,151.373668 L710.409375,142.339406 L710.409375,142.339406 Z M712.076875,143.76968 L712.076875,146.195714 L713.744375,146.195714 C714.6325,146.195714 715.448125,146.032772 715.448125,144.964593 C715.448125,143.896413 714.6325,143.76968 713.744375,143.76968 L712.076875,143.76968 Z M884.31875,146.938008 C884.31875,151.717658 880.83875,155.356709 876.05375,155.356709 C871.26875,155.356709 867.734375,151.57282 867.734375,146.938008 C867.734375,142.303197 871.3775,138.41068 876.05375,138.41068 C880.73,138.41068 884.31875,142.266988 884.31875,146.938008 Z M869.329375,146.938008 C869.329375,150.721898 872.229375,153.890226 876.05375,153.890226 C879.878125,153.890226 882.778125,150.88484 882.778125,146.938008 C882.778125,142.991177 879.841875,139.913372 876.05375,139.913372 C872.265625,139.913372 869.329375,143.0817 869.329375,146.938008 Z M872.845625,142.339406 L876.253125,142.339406 C877.57625,142.339406 879.624375,142.719606 879.624375,144.964593 C879.624375,146.666437 878.355625,147.281998 877.195625,147.426836 L880.168125,151.373668 L878.22875,151.373668 L875.40125,147.51736 L874.513125,147.51736 L874.513125,151.373668 L872.845625,151.373668 L872.845625,142.339406 L872.845625,142.339406 Z M874.513125,143.76968 L874.513125,146.195714 L876.180625,146.195714 C877.06875,146.195714 877.884375,146.032772 877.884375,144.964593 C877.884375,143.896413 877.06875,143.76968 876.180625,143.76968 L874.513125,143.76968 Z M1029.02875,146.938008 C1029.02875,151.717658 1025.54875,155.356709 1020.76375,155.356709 C1015.97875,155.356709 1012.44438,151.57282 1012.44438,146.938008 C1012.44438,142.303197 1016.0875,138.41068 1020.76375,138.41068 C1025.44,138.41068 1029.02875,142.266988 1029.02875,146.938008 Z M1014.03938,146.938008 C1014.03938,150.721898 1016.93938,153.890226 1020.76375,153.890226 C1024.58813,153.890226 1027.48813,150.88484 1027.48813,146.938008 C1027.48813,142.991177 1024.55188,139.913372 1020.76375,139.913372 C1016.97563,139.913372 1014.03938,143.0817 1014.03938,146.938008 Z M1017.55563,142.339406 L1020.96313,142.339406 C1022.28625,142.339406 1024.33438,142.719606 1024.33438,144.964593 C1024.33438,146.666437 1023.06563,147.281998 1021.90563,147.426836 L1024.87813,151.373668 L1022.93875,151.373668 L1020.11125,147.51736 L1019.22313,147.51736 L1019.22313,151.373668 L1017.55563,151.373668 L1017.55563,142.339406 L1017.55563,142.339406 Z M1019.22313,143.76968 L1019.22313,146.195714 L1020.89063,146.195714 C1021.77875,146.195714 1022.59438,146.032772 1022.59438,144.964593 C1022.59438,143.896413 1021.77875,143.76968 1020.89063,143.76968 L1019.22313,143.76968 Z"/><g transform="translate(746.406)"><g transform="translate(175.432)"><path fill="#1355E9" d="M122.1625,44.5557465 C122.1625,94.6334365 94.014375,128.163401 87.0725,135.513922 C80.14875,142.864444 66.391875,154.216111 61.08125,155.356709 C55.7525,154.216111 42.01375,142.864444 35.09,135.513922 C28.148125,128.163401 0,94.6334365 0,44.5557465 C0,25.7268248 3.51625,10.4283259 9.515625,0 C24.46875,7.92987281 39.3675,11.9491234 61.08125,11.9491234 C82.795,11.9491234 97.69375,7.92987281 112.646875,0 C118.64625,10.4102212 122.1625,25.7268248 122.1625,44.5557465 Z"/><path fill="#FFF" d="M111.196875,44.1031282 C111.196875,34.4533058 109.6925,20.4402429 106.339375,15.3890226 L105.7775,15.7149078 C96.660625,20.5488713 79.695625,24.7491692 61.08125,24.7491692 C42.466875,24.7491692 24.921875,20.2229861 15.805,15.3890226 C12.451875,20.4402429 10.9475,34.4533058 10.9475,44.1031282 C10.9475,89.2744357 34.47375,118.278217 37.681875,122.170735 C42.01375,127.457316 58.163125,141.959207 61.08125,142.647187 C63.98125,141.959207 80.130625,127.457316 84.480625,122.170735 C87.670625,118.260112 111.196875,89.2744357 111.196875,44.1031282 L111.196875,44.1031282 Z M103.548125,22.7576487 C106.556875,27.3019365 107.173125,39.0156984 106.919375,47.6878652 C105.614375,92.4789733 85.060625,114.440014 82.160625,117.970437 C78.26375,122.731981 63.709375,136.328635 61.08125,137.016615 C58.435,136.328635 43.880625,122.731981 39.965625,117.970437 C37.065625,114.440014 16.53,92.4789733 15.225,47.70597 C14.97125,39.0156984 15.569375,27.3019365 18.578125,22.7757534 C26.806875,27.1208892 44.279375,29.6012375 61.063125,29.6012375 C77.7925,29.6012375 95.30125,27.1389939 103.53,22.7757534 L103.548125,22.7576487 Z M57.52875,119.726596 L57.438125,115.471983 C55.480625,116.232382 53.921875,119.147244 53.94,121.537069 C53.94,121.989687 54.066875,123.854475 54.955,124.325198 C55.28125,124.48814 55.535,124.325198 55.68,124.089836 C56.3325,123.112181 56.1875,120.867194 57.52875,119.726596 L57.52875,119.726596 Z M62.1325,111.199267 C61.73375,110.692334 60.9,109.913831 59.576875,109.533631 C58.743125,109.280165 58.743125,109.352584 58.018125,109.081013 C58.18125,113.082159 58.380625,117.916122 58.435,120.758565 C58.5075,123.546694 58.598125,126.986593 58.598125,127.620259 C60.21125,128.724648 62.24125,127.801306 62.24125,127.801306 C62.2775,127.348688 62.64,122.985447 62.730625,118.260112 C62.74875,116.322906 62.96625,112.01398 62.1325,111.181162 L62.1325,111.199267 Z M64.4525,104.355678 C63.709375,104.047897 61.80625,103.323708 60.9,102.943509 C59.74,102.454681 57.71,101.422711 56.894375,101.133035 C56.133125,100.879569 54.864375,100.698522 56.51375,99.8294947 C56.459375,98.6164776 56.314375,97.7836599 56.26,96.8603186 C56.26,96.1180245 56.133125,95.2308926 56.060625,94.3437607 C49.390625,94.3980749 46.708125,104.627249 57.583125,107.342959 C59.178125,107.741263 59.6675,107.904205 60.32,108.230091 C61.51625,108.863756 61.9875,109.243956 62.549375,109.768993 C63.238125,110.420763 63.655,111.28979 63.655,112.448493 L63.655,117.662656 C69.908125,114.403804 70.524375,106.998969 64.4525,104.355678 Z M63.03875,96.0456056 C63.03875,95.1946832 63.1475,94.054085 63.201875,93.1850579 C63.22,92.768649 63.129375,91.4470036 63.1475,91.1211184 C62.06,90.8314426 62.041875,91.1211184 59.866875,90.9038616 C58.68875,90.7771285 58.163125,90.6322906 57.184375,90.5779764 C57.148125,91.3745846 57.220625,93.6014667 57.275,94.2894465 L57.42,96.624957 L57.42,98.453535 C57.42,98.6707918 57.45625,99.6846568 57.474375,99.9200183 C58.25375,100.336427 58.9425,101.006302 60.21125,101.513235 C61.099375,101.83912 62.259375,102.400367 63.11125,102.5271 C63.11125,101.730492 63.075,100.010542 63.11125,99.1777243 C63.129375,97.6026126 63.020625,97.6569268 63.056875,96.0456056 L63.03875,96.0456056 Z M64.5975,82.7929414 C62.93,82.4308468 62.041875,82.2316947 61.5525,82.1773805 C58.6525,81.8152859 57.764375,81.8696001 55.35375,81.7066575 L53.849375,78.2305489 L52.145625,74.0664604 C46.526875,76.2390283 45.8925,87.3191246 54.5925,88.9847599 C58.344375,89.7089492 59.468125,89.6365303 60.61,89.7632634 C62.785,89.998625 65.159375,89.7632634 65.79375,90.7047095 C66.95375,92.3703449 65.35875,92.6781254 64.5975,93.5471525 C64.34375,94.1808182 64.34375,94.4704939 64.289375,95.3757305 C64.144375,96.8241091 64.108125,98.2724877 64.09,99.6303426 C73.460625,98.6888965 76.23375,85.2732898 64.5975,82.7929414 L64.5975,82.7929414 Z M54.375,76.2933425 L56.278125,80.5841641 L63.093125,81.2178297 L63.093125,68.0556892 L55.335625,67.4582331 L52.5625,71.8938925 L54.375,76.2933425 L54.375,76.2933425 Z M65.54,59.7275123 C64.905625,59.5826745 64.3075,59.3473129 63.61875,59.1662656 C62.041875,58.7679615 60.265625,58.460181 58.32625,58.2429243 C56.423125,58.0980864 54.665,57.5911539 53.233125,57.3014782 C42.901875,55.2194339 44.279375,50.747565 44.91375,48.6655208 C46.65375,49.2991864 48.266875,49.6974905 50.006875,49.9147473 C52.036875,50.1682136 54.211875,50.2406325 56.115,49.3897101 C54.41125,47.9232268 50.27875,47.2533517 49.028125,46.1127535 C49.028125,46.1127535 51.275625,45.8230778 55.045625,46.2575914 C56.930625,46.4748482 59.305,45.3885642 59.305,45.3885642 C57.909375,42.0391887 53.486875,38.9251747 45.294375,40.2830297 C34.020625,42.1478171 30.613125,63.0587831 53.795,66.0641687 C55.154375,66.245216 57.800625,66.4262633 59.34125,66.5892059 C61.751875,66.8064627 62.875625,66.8064627 64.289375,67.0780337 C65.268125,67.259081 67.89625,71.0610748 64.289375,71.4412742 C64.289375,71.4412742 63.69125,75.4786295 64.724375,79.8418701 C75.563125,80.0048127 80.094375,63.2760399 65.54,59.7456171 L65.54,59.7275123 Z M71.59375,41.9848745 C70.3975,42.7814828 66.7725,46.0403346 65.35875,46.7283144 C64.615625,47.1085138 64.77875,40.0114587 64.77875,40.0114587 C64.833125,39.4321073 62.96625,38.2190902 60.9725,37.4043772 C60.736875,37.2776441 60.410625,36.8974447 59.830625,36.6258737 C56.749375,35.6301134 55.06375,34.9783431 55.154375,37.9294145 C55.1725,38.4001375 54.955,38.9975937 55.49875,39.9028303 C55.49875,39.9028303 58.47125,41.3512089 59.77625,43.849662 C60.555625,45.33425 60.773125,46.2394867 60.773125,46.2394867 C60.773125,46.2394867 60.120625,46.7826286 58.2175,47.0541996 C59.6675,47.5249227 60.9,48.1223788 62.06,48.3396356 L63.1475,49.5164432 C62.295625,49.6069669 60.011875,49.2991864 57.510625,48.4844735 L57.89125,49.6250716 C56.894375,50.4397846 56.44125,50.6570414 54.7375,50.8380887 C54.646875,52.7571903 54.77375,54.8573393 55.06375,56.5953936 L63.455625,57.989458 C64.12625,57.5911539 64.869375,56.1065658 64.96,56.0160422 C66.464375,54.4228257 69.31,51.4174401 75.309375,45.605821 C77.575,43.3970437 74.004375,40.3554486 71.611875,41.9667698 L71.59375,41.9848745 Z M52.109375,42.835797 C50.840625,42.0572935 50.043125,41.9124556 50.043125,41.9124556 C50.043125,41.9124556 52.59875,41.0253237 54.828125,42.220236 C54.828125,42.220236 54.48375,43.2703105 53.740625,43.3608342 C53.051875,43.4513579 52.59875,43.1254727 52.1275,42.835797 L52.109375,42.835797 Z"/></g><g transform="translate(0 .724)"><polygon fill="#1355E9" points="154.624 111.616 111.578 111.616 111.596 154.633 43.065 154.633 43.065 111.616 0 111.616 0 43.017 43.065 43.017 43.065 0 111.578 0 111.578 43.017 154.624 43.017"/><path fill="#FFF" d="M39.005,59.3473129 L67.4975,59.3473129 C70.325,59.3654177 72.590625,58.5507047 73.91375,57.174745 C75.599375,55.4547955 75.72625,52.8658187 73.40625,50.0233757 C69.291875,44.9902601 72.844375,40.1744013 77.17625,40.3373439 C81.49,40.5183912 85.060625,44.9902601 80.964375,50.0233757 C78.62625,52.8658187 78.753125,55.4366907 80.456875,57.174745 C81.761875,58.5326 84.045625,59.3654177 86.873125,59.3654177 L116.10875,59.3654177 C113.0275,52.7028761 112.066875,50.9286124 106.774375,46.3662198 C99.76,40.3011344 86.691875,34.7067721 77.520625,34.7067721 C65.79375,34.7067721 55.190625,39.4683167 47.505625,47.1447233 C43.989375,50.6570414 41.1075,54.7849204 38.986875,59.3473129 L39.005,59.3473129 Z M50.9675,110.185402 C53.68625,105.079867 65.558125,82.9739888 69.27375,76.0398762 C73.388125,68.3272602 68.893125,65.1046179 62.82125,64.7425232 C57.148125,64.416638 47.9225,62.8958405 37.573125,62.660479 C35.96,67.1504526 35.071875,72.0568351 35.071875,77.1080555 C35.071875,90.469348 41.270625,102.400367 50.9675,110.185402 Z M101.083125,112.394179 C101.083125,112.394179 81.9975,84.8206715 80.94625,83.028303 C79.85875,81.2540392 78.9525,80.1496505 77.158125,80.1496505 C75.36375,80.1496505 74.4575,81.2359345 73.388125,83.028303 C72.445625,84.6034147 57.075625,106.908445 53.505,112.086399 C60.338125,116.793629 68.603125,119.509339 77.520625,119.509339 C86.438125,119.509339 94.35875,116.884153 101.083125,112.394179 Z M119.969375,77.1080555 C119.969375,72.0025209 119.08125,67.1142432 117.431875,62.58806 C106.810625,62.7691074 97.313125,64.3985333 91.53125,64.7425232 C85.423125,65.1046179 80.94625,68.345365 85.0425,76.0398762 C89.193125,83.7343875 102.98625,109.533631 103.53,110.619915 C113.535,102.852985 119.969375,90.740919 119.969375,77.1261602 L119.969375,77.1080555 Z"/><path fill="#1355E9" d="M68.73,53.8072648 L49.173125,53.8072648 C53.486875,48.0680646 59.758125,43.7591383 66.391875,42.3288644 C64.235,49.8423284 68.73,50.3854704 68.73,53.8072648 Z M105.179375,53.8072648 C100.249375,48.8827776 94.594375,43.7591383 87.9425,42.3288644 C90.099375,49.8604331 85.604375,50.4035751 85.604375,53.8072648 L105.179375,53.8072648 Z M77.17625,88.2243612 C75.925625,88.2243612 61.933125,110.29403 61.933125,110.29403 C66.0475,112.430388 71.2675,113.516672 77.17625,113.516672 C83.085,113.516672 88.305,112.448493 92.4375,110.29403 C92.4375,110.29403 78.426875,88.2243612 77.17625,88.2243612 Z M92.075,70.4817234 C90.48,70.6627707 89.03,70.8257133 90.48,73.5233184 C91.89375,76.2028188 104.998125,100.933883 104.998125,100.933883 C111.450625,92.8772774 115.583125,82.8291509 113.081875,68.8522975 C113.081875,68.8522975 93.34375,70.4636187 92.075,70.4636187 L92.075,70.4817234 Z M62.2775,70.4817234 C61.026875,70.4817234 41.28875,68.8704022 41.28875,68.8704022 C38.769375,82.8472556 42.901875,92.8953821 49.354375,100.951988 C49.354375,100.951988 62.45875,76.2209236 63.90875,73.5414232 C65.3225,70.843818 63.90875,70.6627707 62.2775,70.4998281 L62.2775,70.4817234 Z"/></g></g><path fill="#1355E9" d="M94.739375,126.17188 L37.935625,126.17188 L26.57125,155.338604 L0,155.338604 L52.1275,25.4733585 L81.943125,25.4733585 L134.288125,155.356709 L106.085625,155.356709 L94.72125,126.189985 L94.739375,126.17188 Z M86.220625,103.685803 L66.3375,52.4313051 L46.454375,103.685803 L86.2025,103.685803 L86.220625,103.685803 Z M144.38375,58.2972385 L169.124375,58.2972385 L169.124375,72.0749398 C174.199375,61.7371376 183.9325,55.6539475 196.710625,55.6539475 C219.0225,55.6539475 233.431875,71.2602269 233.431875,96.5887476 L233.431875,155.356709 L208.69125,155.356709 L208.69125,100.245904 C208.69125,87.0656583 201.1875,78.7555861 189.0075,78.7555861 C176.8275,78.7555861 169.124375,87.0656583 169.124375,100.245904 L169.124375,155.356709 L144.38375,155.356709 L144.38375,58.2972385 L144.38375,58.2972385 Z M242.566875,58.2972385 L259.604375,58.2972385 L259.604375,33.1678698 L284.761875,33.1678698 L284.761875,58.2972385 L310.735,58.2972385 L310.735,80.1677552 L284.761875,80.1677552 L284.761875,121.500859 C284.761875,130.60754 288.423125,134.862152 295.709375,134.862152 C300.3675,134.862152 304.844375,132.834422 307.273125,130.010084 L318.23875,148.440701 C312.964375,153.709178 303.829375,157.963791 291.866875,157.963791 C272.20125,157.963791 259.6225,145.815515 259.6225,122.098316 L259.6225,80.1496505 L242.585,80.1496505 L242.585,58.2791337 L242.566875,58.2972385 Z M330.291875,15.9502693 L355.0325,15.9502693 L355.0325,72.0749398 C360.1075,61.7371376 369.840625,55.6539475 382.61875,55.6539475 C404.930625,55.6539475 419.34,71.2602269 419.34,96.5887476 L419.34,155.356709 L394.599375,155.356709 L394.599375,100.245904 C394.599375,87.0656583 387.095625,78.7555861 374.915625,78.7555861 C362.735625,78.7555861 355.0325,87.0656583 355.0325,100.245904 L355.0325,155.356709 L330.291875,155.356709 L330.291875,15.9502693 L330.291875,15.9502693 Z M432.7525,106.727398 C432.7525,78.5564341 453.650625,55.6720523 481.635625,55.6720523 C509.620625,55.6720523 530.718125,76.9451129 530.718125,104.916924 C530.718125,108.157672 530.51875,112.01398 530.101875,113.625301 L458.09125,113.625301 C460.719375,127.004698 470.869375,136.310531 485.6775,136.310531 C495.61,136.310531 503.929375,132.055918 509.620625,126.189985 L522.39875,143.208434 C514.895,151.518506 501.101875,158 484.88,158 C454.6475,158 432.7525,135.097513 432.7525,106.745502 L432.7525,106.727398 Z M458.725625,96.3895955 L505.18,96.3895955 C502.135,83.4266071 493.416875,76.528704 482.0525,76.528704 C470.688125,76.528704 461.770625,84.6396242 458.725625,96.3895955 L458.725625,96.3895955 Z M544.5475,155.356709 L544.5475,58.2972385 L569.288125,58.2972385 L569.288125,73.0888049 C574.363125,62.5518506 583.896875,55.6539475 596.675,55.6539475 C611.483125,55.6539475 622.8475,62.9501547 628.520625,75.9131431 C633.595625,64.3623238 642.93,55.6539475 658.33625,55.6539475 C680.8475,55.6539475 695.655625,70.644666 695.655625,96.5887476 L695.655625,155.356709 L670.6975,155.356709 L670.6975,100.245904 C670.6975,87.0656583 663.393125,78.7555861 651.63,78.7555861 C639.866875,78.7555861 632.363125,87.0656583 632.363125,100.245904 L632.363125,155.356709 L607.6225,155.356709 L607.6225,100.245904 C607.6225,87.0656583 600.318125,78.7555861 588.555,78.7555861 C576.791875,78.7555861 569.288125,87.0656583 569.288125,100.245904 L569.288125,155.356709 L544.5475,155.356709 L544.5475,155.356709 Z"/></g></svg>